<svg xmlns="http://www.w3.org/2000/svg" xmlns:xlink="http://www.w3.org/1999/xlink" aria-hidden="true" role="img" class="iconify iconify--logos" width="31.88" height="32" preserveAspectRatio="xMidYMid meet" viewBox="0 0 256 257"><defs><linearGradient id="IconifyId1813088fe1fbc01fb466" x1="-.828%" x2="57.636%" y1="7.652%" y2="78.411%"><stop offset="0%" stop-color="#41D1FF"></stop><stop offset="100%" stop-color="#BD34FE"></stop></linearGradient><linearGradient id="IconifyId1813088fe1fbc01fb467" x1="43.376%" x2="50.316%" y1="2.242%" y2="89.03%"><stop offset="0%" stop-color="#FFEA83"></stop><stop offset="8.333%" stop-color="#FFDD35"></stop><stop offset="100%" stop-color="#FFA800"></stop></linearGradient></defs><path fill="url(#IconifyId1813088fe1fbc01fb466)" d="M255.153 37.938L134.897 252.976c-2.483 4.44-8.862 4.466-11.382.048L.875 37.958c-2.746-4.814 1.371-10.646 6.827-9.67l120.385 21.517a6.537 6.537 0 0 0 2.322-.004l117.867-21.483c5.438-.991 9.574 4.796 6.877 9.62Z"></path><path fill="url(#IconifyId1813088fe1fbc01fb467)" d="M185.432.063L96.44 17.501a3.268 3.268 0 0 0-2.634 3.014l-5.474 92.456a3.268 3.268 0 0 0 3.997 3.378l24.777-5.718c2.318-.535 4.413 1.507 3.936 3.838l-7.361 36.047c-.495 2.426 1.782 4.5 4.151 3.78l15.304-4.649c2.372-.72 4.652 1.36 4.15 3.788l-11.698 56.621c-.732 3.542 3.979 5.473 5.943 2.437l1.313-2.158l117.268-72.231c3.095-1.905 1.35-7.198-2.198-6.567l-25.505 4.42c-2.455.424-4.582-1.722-3.984-4.128l8.239-37.467c.627-2.85-2.019-5.24-4.64-4.397l-31.196 10.22c-2.625.844-5.096-1.704-4.11-4.35l14.439-44.14c.987-2.65-.14-5.622-2.64-6.28l-44.88-12.46c-2.516-.662-5.106 1.228-4.99 3.9l3.242 49.704c.12 1.84-1.75 3.207-3.48 2.582l-25.24-7.165c-2.11-.59-4.255 1.028-4.22 3.26l1.327 49.797c.035 2.24-2.01 3.88-4.1 3.33l-31.96-8.545c-2.08-.543-4.214 1.05-4.15 3.3l4.267 49.84c.066 2.25-1.98 3.95-4.08 3.48l-31.59-7.05c-2.09-.46-4.2 1.01-4.15 3.27l3.214 49.78c.05 2.26-2.02 3.9-4.11 3.44l-31.96-7.05"></path></svg>

